<svg xmlns="http://www.w3.org/2000/svg" width="96" height="96" viewBox="0 0 96 96">
  <defs>
    <linearGradient id="translate-button-a" x1="20.836%" x2="50%" y1="22.69%" y2="93.821%">
      <stop offset="0%" stop-color="#49B3FF"/>
      <stop offset="100%" stop-color="#ECA647"/>
    </linearGradient>
    <linearGradient id="translate-button-b" x1="20.836%" x2="50%" y1="18.839%" y2="100%">
      <stop offset="0%" stop-color="#49B3FF"/>
      <stop offset="100%" stop-color="#ECA647"/>
    </linearGradient>
    <linearGradient id="translate-button-c" x1="20.836%" x2="50%" y1="42.001%" y2="62.836%">
      <stop offset="0%" stop-color="#49B3FF"/>
      <stop offset="100%" stop-color="#ECA647"/>
    </linearGradient>
  </defs>
  <g fill="none" fill-rule="evenodd">
    <path stroke="url(#translate-button-a)" stroke-width="3" d="M47,93 L38.2209354,92.1545522 L29.7792453,89.6506991 L21.9993392,85.5846625 L15.1801945,80.1126978 L9.58386714,73.4450896 L5.4254208,65.8380703 L2.86466224,57.5839734 L2,49 L2.86466251,40.4160253 L5.42542125,32.1619286 L9.58386769,24.5549096 L15.1801951,17.8873016 L21.9993397,12.4153372 L29.7792457,8.34930072 L38.2209356,5.84544777 L47,5 M47,93 L39.1869229,92.1595924 L31.6740981,89.6706665 L24.750239,85.6288701 L18.6814259,80.1895273 L13.7008797,73.561669 L10,66 M25,12 L31.8461364,8.16170452 L39.2746273,5.79809377 L47,5 M47,93 L41.1472902,92.1545522 L35.5194969,89.6506991 L30.3328928,85.5846625 L25.7867963,80.1126978 L19.2836139,65.8380703 L17,49 L19.2836142,32.1619286 L25.7867967,17.8873016 L30.3328931,12.4153372 L35.5194971,8.34930072 L41.1472904,5.84544777 L47,5 M47,93 L43.8785548,92.1545522 L40.877065,89.6506991 L35.6862914,80.1126978 L32.2179274,65.8380703 L31,49 L32.2179276,32.1619286 L35.6862916,17.8873016 L40.8770651,8.34930072 L43.8785549,5.84544777 L47,5 M46.5,93 L46.5,89.6506991 L46.5,80.1126978 L46.5,65.8380703 L46.5,49 L46.5,32.1619286 L46.5,17.8873016 L46.5,8.34930072 L46.5,5 M49,93 L52.1214452,92.1545522 L55.122935,89.6506991 L60.3137086,80.1126978 L63.7820726,65.8380703 L65,49 L63.7820724,32.1619286 L60.3137084,17.8873016 L55.1229349,8.34930072 L52.1214451,5.84544777 L49,5 M49,93 L54.8527098,92.1545522 L60.4805031,89.6506991 L65.6671072,85.5846625 L70.2132037,80.1126978 L76.7163861,65.8380703 L79,49 L76.7163858,32.1619286 L70.2132033,17.8873016 L65.6671069,12.4153372 L60.4805029,8.34930072 L54.8527096,5.84544777 L49,5 M49,93 L56.8130771,92.1595924 L64.3259019,89.6706665 L71.249761,85.6288701 L77.3185741,80.1895273 L82.2991203,73.561669 L86,66 M71,12 L64.1538636,8.16170452 L56.7253727,5.79809377 L49,5 M49,93 L57.7790646,92.1545522 L66.2207547,89.6506991 L74.0006608,85.5846625 L80.8198055,80.1126978 L86.4161329,73.4450896 L90.5745792,65.8380703 L93.1353378,57.5839734 L94,49 L93.1353375,40.4160253 L90.5745788,32.1619286 L86.4161323,24.5549096 L80.8198049,17.8873016 L74.0006603,12.4153372 L66.2207543,8.34930072 L57.7790644,5.84544777 L49,5 M41,92.5 L41.0076142,92.5 L41.0304423,92.5 L41.0684409,92.5 L41.1215376,92.5 L41.1896314,92.5 L41.2725926,92.5 L41.3702633,92.5 L41.4824577,92.5 L41.608962,92.5 L41.7495356,92.5 L41.9039108,92.5 L42.0717937,92.5 L42.2528649,92.5 L42.4467796,92.5 L42.6531686,92.5 L42.8716392,92.5 L43.1017754,92.5 L43.3431391,92.5 L43.595271,92.5 L43.857691,92.5 L44.1298997,92.5 L44.4113789,92.5 L44.7015927,92.5 L44.9999887,92.5 L45.3059989,92.5 L45.6190409,92.5 L45.9385186,92.5 L46.263824,92.5 L46.5943378,92.5 L46.9294309,92.5 L47.2684654,92.5 L47.6107959,92.5 L47.9557708,92.5 L48.3027334,92.5 L48.6510233,92.5 L48.9999774,92.5 L49.3489315,92.5 L49.6972214,92.5 L50.044184,92.5 L50.3891589,92.5 L50.7314894,92.5 L51.0705239,92.5 L51.405617,92.5 L51.7361308,92.5 L52.0614362,92.5 L52.3809139,92.5 L52.6939559,92.5 L52.9999661,92.5 L53.2983621,92.5 L53.5885759,92.5 L53.8700551,92.5 L54.1422638,92.5 L54.4046838,92.5 L54.6568157,92.5 L54.8981794,92.5 L55.1283156,92.5 L55.3467862,92.5 L55.5531752,92.5 L55.7470899,92.5 L55.9281611,92.5 L56.096044,92.5 L56.2504192,92.5 L56.3909928,92.5 L56.5174971,92.5 L56.6296915,92.5 L56.7273622,92.5 L56.8103234,92.5 L56.8784172,92.5 L56.9315139,92.5 L56.9695125,92.5 L56.9923406,92.5 L57,92.5 M24,86.5000117 L24.0228427,86.5000117 L24.0913272,86.5000117 L24.2053232,86.5000117 L24.3646136,86.5000117 L24.5688953,86.5000117 L24.8177795,86.5000117 L25.1107922,86.5000117 L25.4473759,86.5000117 L25.8268897,86.5000117 L26.2486112,86.5000117 L26.7117377,86.5000117 L27.2153876,86.5000117 L27.7586021,86.5000117 L28.3403472,86.5000117 L28.9595156,86.5000117 L29.6149285,86.5000117 L30.3053385,86.5000117 L31.0294312,86.5000117 L31.7858283,86.5000117 L32.57309,86.5000117 L33.3897176,86.5000117 L34.2341567,86.5000117 L35.1047999,86.5000117 L35.9999897,86.5000117 L36.9180222,86.5000117 L37.8571498,86.5000117 L38.8155849,86.5000117 L39.791503,86.5000117 L40.7830464,86.5000117 L41.7883277,86.5000117 L42.8054331,86.5000117 L43.8324267,86.5000117 L44.8673535,86.5000117 L45.9082434,86.5000117 L46.953115,86.5000117 L47.9999794,86.5000117 L49.0468438,86.5000117 L50.0917154,86.5000117 L51.1326053,86.5000117 L52.1675321,86.5000117 L53.1945257,86.5000117 L54.2116312,86.5000117 L55.2169124,86.5000117 L56.2084558,86.5000117 L57.1843739,86.5000117 L58.142809,86.5000117 L59.0819366,86.5000117 L59.9999691,86.5000117 L60.895159,86.5000117 L61.7658021,86.5000117 L62.6102412,86.5000117 L63.4268688,86.5000117 L64.2141305,86.5000117 L64.9705276,86.5000117 L65.6946203,86.5000117 L66.3850303,86.5000117 L67.0404432,86.5000117 L67.6596116,86.5000117 L68.2413567,86.5000117 L68.7845713,86.5000117 L69.2882211,86.5000117 L69.7513476,86.5000117 L70.1730692,86.5000117 L70.552583,86.5000117 L70.8891666,86.5000117 L71.1821794,86.5000117 L71.4310635,86.5000117 L71.6353452,86.5000117 L71.7946357,86.5000117 L71.9086317,86.5000117 L71.9771162,86.5000117 L72,86.4999883 M12,76.5000179 L12.034264,76.5000179 L12.1369908,76.5000179 L12.3079849,76.5000179 L12.5469207,76.5000179 L12.8533434,76.5000179 L13.2266697,76.5000179 L13.6661891,76.5000179 L14.1710648,76.5000179 L14.7403357,76.5000179 L15.3729183,76.5000179 L16.0676083,76.5000179 L16.8230835,76.5000179 L17.6379056,76.5000179 L18.5105237,76.5000179 L19.4392767,76.5000179 L20.4223966,76.5000179 L21.4580119,76.5000179 L22.5441515,76.5000179 L23.6787477,76.5000179 L24.8596407,76.5000179 L26.0845827,76.5000179 L27.3512419,76.5000179 L28.6572072,76.5000179 L30,76.5000179 L31.3770419,76.5000179 L32.785734,76.5000179 L34.2233872,76.5000179 L35.687265,76.5000179 L37.1745808,76.5000179 L38.6825033,76.5000179 L40.2081622,76.5000179 L41.7486533,76.5000179 L43.3010441,76.5000179 L44.8623796,76.5000179 L46.4296878,76.5000179 L47.9999851,76.5000179 L49.5702824,76.5000179 L51.1375905,76.5000179 L52.698926,76.5000179 L54.2513169,76.5000179 L55.7918079,76.5000179 L57.3174668,76.5000179 L58.8253893,76.5000179 L60.3127051,76.5000179 L61.7765829,76.5000179 L63.2142362,76.5000179 L64.6229282,76.5000179 L65.9999776,76.5000179 L67.3427629,76.5000179 L68.6487282,76.5000179 L69.9153874,76.5000179 L71.1403294,76.5000179 L72.3212224,76.5000179 L73.4558186,76.5000179 L74.5419582,76.5000179 L75.5775736,76.5000179 L76.5606935,76.5000179 L77.4894464,76.5000179 L78.3620645,76.5000179 L79.1768867,76.5000179 L79.9323618,76.5000179 L80.6270519,76.5000179 L81.2596344,76.5000179 L81.8289054,76.5000179 L82.333781,76.5000179 L82.7733004,76.5000179 L83.1466267,76.5000179 L83.4530495,76.5000179 L83.6919853,76.5000179 L83.8629793,76.5000179 L83.9657061,76.5000179 L84,76.4999821 M4,63.500022 L4.04187824,63.500022 L4.16743325,63.500022 L4.37642603,63.500022 L4.66845875,63.500022 L5.0429755,63.500022 L5.49926337,63.500022 L6.0364538,63.500022 L6.65352421,63.500022 L7.34929996,63.500022 L8.12245663,63.500022 L8.97152244,63.500022 L9.89488117,63.500022 L10.8907751,63.500022 L11.9573086,63.500022 L13.0924514,63.500022 L14.2940426,63.500022 L15.5597951,63.500022 L16.8872993,63.500022 L18.2740283,63.500022 L19.7173423,63.500022 L21.214494,63.500022 L22.7626334,63.500022 L24.3588136,63.500022 L26,63.500022 L27.6830567,63.500022 L29.4047919,63.500022 L31.1619241,63.500022 L32.9511085,63.500022 L34.7689393,63.500022 L36.6119561,63.500022 L38.4766508,63.500022 L40.3594736,63.500022 L42.2568406,63.500022 L44.1651401,63.500022 L46.0807394,63.500022 L48,63.500022 L49.9192447,63.500022 L51.834844,63.500022 L53.7431435,63.500022 L55.6405105,63.500022 L57.5233333,63.500022 L59.388028,63.500022 L61.2310448,63.500022 L63.0488756,63.500022 L64.83806,63.500022 L66.5951922,63.500022 L68.3169274,63.500022 L69.9999881,63.500022 L71.6411705,63.500022 L73.2373507,63.500022 L74.7854901,63.500022 L76.2826418,63.500022 L77.7259558,63.500022 L79.1126848,63.500022 L80.440189,63.500022 L81.7059415,63.500022 L82.9075327,63.500022 L84.0426755,63.500022 L85.109209,63.500022 L86.1051029,63.500022 L87.0284617,63.500022 L87.8775275,63.500022 L88.6506841,63.500022 L89.3464599,63.500022 L89.9635303,63.500022 L90.5007207,63.500022 L90.9570086,63.500022 L91.3315254,63.500022 L91.6235581,63.500022 L91.8325508,63.500022 L91.9581059,63.500022 L92,63.499978 M1,48.5000236 L1.04473359,48.5000236 L1.17884919,48.5000236 L1.40209152,48.5000236 L1.71403561,48.5000236 L2.11408767,48.5000236 L2.60148616,48.5000236 L3.17530331,48.5000236 L3.83444682,48.5000236 L4.57766197,48.5000236 L5.40353401,48.5000236 L6.31049084,48.5000236 L7.29680602,48.5000236 L8.36060205,48.5000236 L9.49985392,48.5000236 L10.712393,48.5000236 L11.9959112,48.5000236 L13.3479652,48.5000236 L14.7659813,48.5000236 L16.2472602,48.5000236 L17.7889823,48.5000236 L19.3882128,48.5000236 L21.0419075,48.5000236 L22.7469184,48.5000236 L24.5,48.5000236 L26.2978152,48.5000236 L28.1369417,48.5000236 L30.0138787,48.5000236 L31.9250533,48.5000236 L33.8668274,48.5000236 L35.8355049,48.5000236 L37.8273381,48.5000236 L39.8385356,48.5000236 L41.865269,48.5000236 L43.9036801,48.5000236 L45.9498888,48.5000236 L48,48.5000236 L50.0501112,48.5000236 L52.0963199,48.5000236 L54.134731,48.5000236 L56.1614644,48.5000236 L58.1726619,48.5000236 L60.1644951,48.5000236 L62.1331726,48.5000236 L64.0749467,48.5000236 L65.9861213,48.5000236 L67.8630583,48.5000236 L69.7021848,48.5000236 L71.5,48.5000236 L73.2530816,48.5000236 L74.9580925,48.5000236 L76.6117872,48.5000236 L78.2110177,48.5000236 L79.7527398,48.5000236 L81.2340187,48.5000236 L82.6520348,48.5000236 L84.0040888,48.5000236 L85.287607,48.5000236 L86.5001461,48.5000236 L87.639398,48.5000236 L88.703194,48.5000236 L89.6895092,48.5000236 L90.596466,48.5000236 L91.422338,48.5000236 L92.1655532,48.5000236 L92.8246967,48.5000236 L93.3985138,48.5000236 L93.8859123,48.5000236 L94.2859644,48.5000236 L94.5979085,48.5000236 L94.8211508,48.5000236 L94.9552664,48.5000236 L95,48.4999764 M4,33.5000223 L4.04187826,33.5000223 L4.16743331,33.5000223 L4.37642617,33.5000223 L4.66845899,33.5000223 L5.04297588,33.5000223 L5.49926392,33.5000223 L6.03645454,33.5000223 L6.65352517,33.5000223 L7.34930118,33.5000223 L8.12245813,33.5000223 L8.97152425,33.5000223 L9.89488331,33.5000223 L10.8907776,33.5000223 L11.9573115,33.5000223 L13.0924547,33.5000223 L14.2940464,33.5000223 L15.5597993,33.5000223 L16.887304,33.5000223 L18.2740335,33.5000223 L19.7173481,33.5000223 L21.2145003,33.5000223 L22.7626402,33.5000223 L24.358821,33.5000223 L26,33.5000223 L27.6830654,33.5000223 L29.4048011,33.5000223 L31.161934,33.5000223 L32.951119,33.5000223 L34.7689505,33.5000223 L36.611968,33.5000223 L38.4766633,33.5000223 L40.3594868,33.5000223 L42.2568546,33.5000223 L44.1651547,33.5000223 L46.0807547,33.5000223 L48,33.5000223 L49.9192615,33.5000223 L51.8348614,33.5000223 L53.7431616,33.5000223 L55.6405293,33.5000223 L57.5233528,33.5000223 L59.3880481,33.5000223 L61.2310657,33.5000223 L63.0488971,33.5000223 L64.8380822,33.5000223 L66.595215,33.5000223 L68.3169508,33.5000223 L70.0000121,33.5000223 L71.6411952,33.5000223 L73.2373759,33.5000223 L74.7855158,33.5000223 L76.2826681,33.5000223 L77.7259826,33.5000223 L79.1127121,33.5000223 L80.4402168,33.5000223 L81.7059697,33.5000223 L82.9075614,33.5000223 L84.0427046,33.5000223 L85.1092385,33.5000223 L86.1051328,33.5000223 L87.0284919,33.5000223 L87.877558,33.5000223 L88.6507149,33.5000223 L89.346491,33.5000223 L89.9635616,33.5000223 L90.5007522,33.5000223 L90.9570402,33.5000223 L91.3315571,33.5000223 L91.62359,33.5000223 L91.8325828,33.5000223 L91.9581379,33.5000223 L92,33.4999777 M12,20.5000183 L12.034264,20.5000183 L12.1369909,20.5000183 L12.3079851,20.5000183 L12.5469211,20.5000183 L12.8533441,20.5000183 L13.2266708,20.5000183 L13.6661905,20.5000183 L14.1710666,20.5000183 L14.740338,20.5000183 L15.3729211,20.5000183 L16.0676117,20.5000183 L16.8230875,20.5000183 L17.6379103,20.5000183 L18.5105292,20.5000183 L19.4392829,20.5000183 L20.4224036,20.5000183 L21.4580199,20.5000183 L22.5441603,20.5000183 L23.6787575,20.5000183 L24.8596515,20.5000183 L26.0845945,20.5000183 L27.3512548,20.5000183 L28.6572212,20.5000183 L30,20.5000183 L31.3770581,20.5000183 L32.7857514,20.5000183 L34.2234059,20.5000183 L35.6872849,20.5000183 L37.1746019,20.5000183 L38.6825257,20.5000183 L40.2081859,20.5000183 L41.7486782,20.5000183 L43.3010704,20.5000183 L44.8624072,20.5000183 L46.4297167,20.5000183 L48.0000153,20.5000183 L49.5703139,20.5000183 L51.1376233,20.5000183 L52.6989602,20.5000183 L54.2513523,20.5000183 L55.7918447,20.5000183 L57.3175048,20.5000183 L58.8254286,20.5000183 L60.3127456,20.5000183 L61.7766247,20.5000183 L63.2142791,20.5000183 L64.6229724,20.5000183 L66.0000229,20.5000183 L67.3428094,20.5000183 L68.6487757,20.5000183 L69.915436,20.5000183 L71.140379,20.5000183 L72.3212731,20.5000183 L73.4558702,20.5000183 L74.5420106,20.5000183 L75.5776269,20.5000183 L76.5607476,20.5000183 L77.4895014,20.5000183 L78.3621202,20.5000183 L79.176943,20.5000183 L79.9324188,20.5000183 L80.6271094,20.5000183 L81.2596925,20.5000183 L81.828964,20.5000183 L82.3338401,20.5000183 L82.7733598,20.5000183 L83.1466864,20.5000183 L83.4531094,20.5000183 L83.6920454,20.5000183 L83.8630396,20.5000183 L83.9657665,20.5000183 L84,20.4999817 M24,9.5000119 L24.0228427,9.5000119 L24.0913273,9.5000119 L24.2053235,9.5000119 L24.3646142,9.5000119 L24.5688963,9.5000119 L24.8177809,9.5000119 L25.1107942,9.5000119 L25.4473784,9.5000119 L25.8268928,9.5000119 L26.2486151,9.5000119 L26.7117424,9.5000119 L27.2153931,9.5000119 L27.7586086,9.5000119 L28.3403547,9.5000119 L28.9595242,9.5000119 L29.6149383,9.5000119 L30.3053494,9.5000119 L31.0294434,9.5000119 L31.7858418,9.5000119 L32.5731049,9.5000119 L33.3897339,9.5000119 L34.2341745,9.5000119 L35.1048191,9.5000119 L36.0000105,9.5000119 L36.9180446,9.5000119 L37.8571738,9.5000119 L38.8156106,9.5000119 L39.7915304,9.5000119 L40.7830755,9.5000119 L41.7883585,9.5000119 L42.8054657,9.5000119 L43.8324611,9.5000119 L44.8673896,9.5000119 L45.9082813,9.5000119 L46.9531548,9.5000119 L48.000021,9.5000119 L49.0468872,9.5000119 L50.0917606,9.5000119 L51.1326523,9.5000119 L52.1675809,9.5000119 L53.1945763,9.5000119 L54.2116835,9.5000119 L55.2169665,9.5000119 L56.2085116,9.5000119 L57.1844314,9.5000119 L58.1428681,9.5000119 L59.0819974,9.5000119 L60.0000315,9.5000119 L60.8952229,9.5000119 L61.7658675,9.5000119 L62.610308,9.5000119 L63.4269371,9.5000119 L64.2142001,9.5000119 L64.9705986,9.5000119 L65.6946925,9.5000119 L66.3851037,9.5000119 L67.0405178,9.5000119 L67.6596872,9.5000119 L68.2414334,9.5000119 L68.7846488,9.5000119 L69.2882996,9.5000119 L69.7514269,9.5000119 L70.1731491,9.5000119 L70.5526636,9.5000119 L70.8892478,9.5000119 L71.1822611,9.5000119 L71.4311456,9.5000119 L71.6354277,9.5000119 L71.7947185,9.5000119 L71.9087146,9.5000119 L71.9771993,9.5000119 L72,9.4999881 M41,5.5 L41.0076142,5.5 L41.0304425,5.5 L41.0684413,5.5 L41.1215383,5.5 L41.1896325,5.5 L41.2725942,5.5 L41.3702654,5.5 L41.4824604,5.5 L41.6089655,5.5 L41.7495398,5.5 L41.9039159,5.5 L42.0717998,5.5 L42.252872,5.5 L42.4467878,5.5 L42.653178,5.5 L42.8716498,5.5 L43.1017873,5.5 L43.3431524,5.5 L43.5952857,5.5 L43.8577073,5.5 L44.1299175,5.5 L44.4113982,5.5 L44.7016137,5.5 L45.0000114,5.5 L45.3060233,5.5 L45.6190671,5.5 L45.9385466,5.5 L46.2638538,5.5 L46.5943695,5.5 L46.9294645,5.5 L47.2685009,5.5 L47.6108334,5.5 L47.9558103,5.5 L48.3027748,5.5 L48.6510667,5.5 L49.0000228,5.5 L49.3489789,5.5 L49.6972707,5.5 L50.0442353,5.5 L50.3892121,5.5 L50.7315446,5.5 L51.070581,5.5 L51.405676,5.5 L51.7361917,5.5 L52.0614989,5.5 L52.3809785,5.5 L52.6940222,5.5 L53.0000342,5.5 L53.2984319,5.5 L53.5886473,5.5 L53.8701281,5.5 L54.1423383,5.5 L54.4047598,5.5 L54.6568931,5.5 L54.8982583,5.5 L55.1283958,5.5 L55.3468676,5.5 L55.5532578,5.5 L55.7471735,5.5 L55.9282457,5.5 L56.0961296,5.5 L56.2505057,5.5 L56.3910801,5.5 L56.5175851,5.5 L56.6297801,5.5 L56.7274514,5.5 L56.8104131,5.5 L56.8785072,5.5 L56.9316042,5.5 L56.969603,5.5 L56.9924313,5.5 L57,5.5" opacity=".216"/>
    <path stroke="url(#translate-button-b)" stroke-width="6" d="M48.1013463,3.71440066 L43.4868616,3.95623555 L38.9229342,4.67909064 L34.4595673,5.87504618 L30.1456627,7.53099903 L26.0284843,9.62880621 L22.1531407,12.1454837 L18.5620912,15.0534583 L15.2946799,18.3208696 L12.3867053,21.9119192 L9.87002779,25.7872627 L7.77222061,29.9044411 L6.11626776,34.2183458 L4.92031222,38.6817126 L4.19745713,43.24564 L3.95562224,47.8601247 L4.19745713,52.4746094 L4.92031222,57.0385369 L6.11626776,61.5019037 L7.77222061,65.8158083 L9.87002779,69.9329868 L12.3867053,73.8083303 L15.2946799,77.3993798 L18.5620912,80.6667911 L22.1531407,83.5747657 L26.0284843,86.0914432 L30.1456627,88.1892504 L34.4595673,89.8452033 L38.9229342,91.0411588 L43.4868616,91.7640139 L48.1013463,92.0058488 L52.715831,91.7640139 L57.2797584,91.0411588 L61.7431253,89.8452033 L66.0570299,88.1892504 L70.1742083,86.0914432 L74.0495519,83.5747657 L77.6406014,80.6667911 L80.9080127,77.3993798 L83.8159873,73.8083303 L86.3326648,69.9329868 L88.430472,65.8158083 L90.0864248,61.5019037 L91.2823804,57.0385369 L92.0052355,52.4746094 L92.2470704,47.8601247 L92.0052355,43.24564 L91.2823804,38.6817126 L90.0864248,34.2183458 L88.430472,29.9044411 L86.3326648,25.7872627 L83.8159873,21.9119192 L80.9080127,18.3208696 L77.6406014,15.0534583 L74.0495519,12.1454837 L70.1742083,9.62880621 L66.0570299,7.53099903 L61.7431253,5.87504618 L57.2797584,4.67909064 L52.715831,3.95623555 L48.1013463,3.71440066 Z"/>
    <path fill="url(#translate-button-c)" fill-rule="nonzero" stroke="#F9F9FA" stroke-width="2" d="M18.125,48 C18.125,41.502 23.3375,36.22 29.75,36.22 L44.75,36.22 L44.75,29 L29.75,29 C19.4,29 11,37.512 11,48 C11,58.488 19.4,67 29.75,67 L44.75,67 L44.75,59.78 L29.75,59.78 C23.3375,59.78 18.125,54.498 18.125,48 Z M33.5,51.8 L63.5,51.8 L63.5,44.2 L33.5,44.2 L33.5,51.8 Z M67.25,29 L52.25,29 L52.25,36.22 L67.25,36.22 C73.6625,36.22 78.875,41.502 78.875,48 C78.875,54.498 73.6625,59.78 67.25,59.78 L52.25,59.78 L52.25,67 L67.25,67 C77.6,67 86,58.488 86,48 C86,37.512 77.6,29 67.25,29 Z" transform="rotate(-45 48.5 48)"/>
  </g>
</svg>
